<mxfile host="65bd71144e" pages="7" scale="1" border="5" disableSvgWarning="true">
    <diagram id="n8_-a6eLP7pCB295_sH3" name="Fully on-chain application">
        <mxGraphModel dx="1113" dy="475" grid="1" gridSize="10" guides="1" tooltips="1" connect="1" arrows="1" fold="1" page="1" pageScale="1" pageWidth="850" pageHeight="1100" background="#FFFFFF" math="0" shadow="0">
            <root>
                <mxCell id="0"/>
                <mxCell id="1" parent="0"/>
                <mxCell id="RwwKK4SHN79_Z6ujYiUq-1" value="Fully on-chain Application&lt;br&gt;Infrastructure" style="rounded=0;whiteSpace=wrap;html=1;verticalAlign=top;" parent="1" vertex="1">
                    <mxGeometry x="20" y="400" width="140" height="35" as="geometry"/>
                </mxCell>
                <mxCell id="RwwKK4SHN79_Z6ujYiUq-18" style="edgeStyle=none;html=1;entryX=0;entryY=0.5;entryDx=0;entryDy=0;" parent="1" source="RwwKK4SHN79_Z6ujYiUq-2" target="RwwKK4SHN79_Z6ujYiUq-8" edge="1">
                    <mxGeometry relative="1" as="geometry"/>
                </mxCell>
                <mxCell id="RwwKK4SHN79_Z6ujYiUq-2" value="Chain Performance" style="rounded=0;whiteSpace=wrap;html=1;verticalAlign=top;" parent="1" vertex="1">
                    <mxGeometry x="240" y="200" width="170" height="40" as="geometry"/>
                </mxCell>
                <mxCell id="RwwKK4SHN79_Z6ujYiUq-17" style="edgeStyle=none;html=1;entryX=0;entryY=0.5;entryDx=0;entryDy=0;" parent="1" source="RwwKK4SHN79_Z6ujYiUq-3" target="RwwKK4SHN79_Z6ujYiUq-5" edge="1">
                    <mxGeometry relative="1" as="geometry"/>
                </mxCell>
                <mxCell id="RwwKK4SHN79_Z6ujYiUq-3" value="SmartContract Expressions" style="rounded=0;whiteSpace=wrap;html=1;verticalAlign=top;" parent="1" vertex="1">
                    <mxGeometry x="240" y="328" width="170" height="38" as="geometry"/>
                </mxCell>
                <mxCell id="RwwKK4SHN79_Z6ujYiUq-15" style="edgeStyle=none;html=1;" parent="1" source="RwwKK4SHN79_Z6ujYiUq-4" target="RwwKK4SHN79_Z6ujYiUq-11" edge="1">
                    <mxGeometry relative="1" as="geometry"/>
                </mxCell>
                <mxCell id="RwwKK4SHN79_Z6ujYiUq-4" value="Input Source(Asset &amp;amp; Information)&amp;nbsp;" style="rounded=0;whiteSpace=wrap;html=1;verticalAlign=top;" parent="1" vertex="1">
                    <mxGeometry x="240" y="472" width="170" height="40" as="geometry"/>
                </mxCell>
                <mxCell id="RwwKK4SHN79_Z6ujYiUq-5" value="Move &amp;amp; StorageAbstraction&lt;br&gt;&lt;br&gt;&lt;div style=&quot;&quot;&gt;1. Object &amp;amp; AccountStorage &amp;amp; AppSpecificStorage&lt;/div&gt;&lt;div style=&quot;&quot;&gt;2. Real-time automatic index&lt;/div&gt;" style="rounded=0;whiteSpace=wrap;html=1;verticalAlign=top;align=left;" parent="1" vertex="1">
                    <mxGeometry x="480" y="296.5" width="280" height="99.5" as="geometry"/>
                </mxCell>
                <mxCell id="RwwKK4SHN79_Z6ujYiUq-7" value="AccountAbstraction&lt;br&gt;&lt;br&gt;1. GasFree(Pay gas via contract)&lt;br&gt;2. AuthencationAbstraction(social login)&lt;br&gt;3. SessionKey" style="rounded=0;whiteSpace=wrap;html=1;verticalAlign=top;align=left;" parent="1" vertex="1">
                    <mxGeometry x="480" y="561" width="280" height="80" as="geometry"/>
                </mxCell>
                <mxCell id="RwwKK4SHN79_Z6ujYiUq-8" value="&lt;span style=&quot;background-color: initial;&quot;&gt;1. DA&lt;/span&gt;&lt;br&gt;&lt;div style=&quot;&quot;&gt;2. Parallel Execution&lt;/div&gt;" style="rounded=0;whiteSpace=wrap;html=1;verticalAlign=top;align=left;" parent="1" vertex="1">
                    <mxGeometry x="480" y="200" width="280" height="40" as="geometry"/>
                </mxCell>
                <mxCell id="RwwKK4SHN79_Z6ujYiUq-16" style="edgeStyle=none;html=1;" parent="1" source="RwwKK4SHN79_Z6ujYiUq-9" target="RwwKK4SHN79_Z6ujYiUq-14" edge="1">
                    <mxGeometry relative="1" as="geometry"/>
                </mxCell>
                <mxCell id="RwwKK4SHN79_Z6ujYiUq-9" value="End User Barrier" style="rounded=0;whiteSpace=wrap;html=1;verticalAlign=top;" parent="1" vertex="1">
                    <mxGeometry x="240" y="609" width="170" height="40" as="geometry"/>
                </mxCell>
                <mxCell id="RwwKK4SHN79_Z6ujYiUq-10" value="Instant Transaction Confirm" style="rounded=0;whiteSpace=wrap;html=1;verticalAlign=top;" parent="1" vertex="1">
                    <mxGeometry x="480" y="660" width="280" height="40" as="geometry"/>
                </mxCell>
                <mxCell id="RwwKK4SHN79_Z6ujYiUq-11" value="1. Multi-chain settlement&lt;br&gt;2. App interaction protocol base on SMT&amp;nbsp;" style="rounded=0;whiteSpace=wrap;html=1;verticalAlign=top;align=left;" parent="1" vertex="1">
                    <mxGeometry x="480" y="460" width="280" height="60" as="geometry"/>
                </mxCell>
                <mxCell id="RwwKK4SHN79_Z6ujYiUq-14" value="" style="shape=curlyBracket;whiteSpace=wrap;html=1;rounded=1;labelPosition=left;verticalLabelPosition=middle;align=right;verticalAlign=middle;" parent="1" vertex="1">
                    <mxGeometry x="440" y="570" width="20" height="120" as="geometry"/>
                </mxCell>
                <mxCell id="RwwKK4SHN79_Z6ujYiUq-19" value="" style="shape=curlyBracket;whiteSpace=wrap;html=1;rounded=1;labelPosition=left;verticalLabelPosition=middle;align=right;verticalAlign=middle;" parent="1" vertex="1">
                    <mxGeometry x="190" y="220" width="20" height="410" as="geometry"/>
                </mxCell>
                <mxCell id="RwwKK4SHN79_Z6ujYiUq-20" value="" style="shape=curlyBracket;whiteSpace=wrap;html=1;rounded=1;flipH=1;labelPosition=right;verticalLabelPosition=middle;align=left;verticalAlign=middle;" parent="1" vertex="1">
                    <mxGeometry x="827" y="220" width="20" height="470" as="geometry"/>
                </mxCell>
                <mxCell id="RwwKK4SHN79_Z6ujYiUq-21" value="Rooch" style="rounded=0;whiteSpace=wrap;html=1;verticalAlign=top;" parent="1" vertex="1">
                    <mxGeometry x="870" y="437" width="140" height="35" as="geometry"/>
                </mxCell>
            </root>
        </mxGraphModel>
    </diagram>
    <diagram id="0429kqQ7cJ9CilZtkxvL" name="adoptaion">
        <mxGraphModel dx="1013" dy="684" grid="1" gridSize="10" guides="1" tooltips="1" connect="1" arrows="1" fold="1" page="1" pageScale="1" pageWidth="850" pageHeight="1100" background="#ffffff" math="0" shadow="0">
            <root>
                <mxCell id="0"/>
                <mxCell id="1" parent="0"/>
                <mxCell id="97oKDFuvLYN0ZNwOcKcf-1" value="CEX" style="whiteSpace=wrap;html=1;aspect=fixed;" parent="1" vertex="1">
                    <mxGeometry x="80" y="600" width="60" height="60" as="geometry"/>
                </mxCell>
                <mxCell id="97oKDFuvLYN0ZNwOcKcf-2" value="L1" style="whiteSpace=wrap;html=1;aspect=fixed;" parent="1" vertex="1">
                    <mxGeometry x="740" y="600" width="60" height="60" as="geometry"/>
                </mxCell>
                <mxCell id="97oKDFuvLYN0ZNwOcKcf-3" value="" style="endArrow=classic;html=1;exitX=1;exitY=0.5;exitDx=0;exitDy=0;entryX=0;entryY=0.5;entryDx=0;entryDy=0;" parent="1" source="97oKDFuvLYN0ZNwOcKcf-1" target="97oKDFuvLYN0ZNwOcKcf-2" edge="1">
                    <mxGeometry width="50" height="50" relative="1" as="geometry">
                        <mxPoint x="400" y="450" as="sourcePoint"/>
                        <mxPoint x="450" y="400" as="targetPoint"/>
                    </mxGeometry>
                </mxCell>
                <mxCell id="97oKDFuvLYN0ZNwOcKcf-4" value="Decentralization" style="text;html=1;strokeColor=none;fillColor=none;align=center;verticalAlign=middle;whiteSpace=wrap;rounded=0;" parent="1" vertex="1">
                    <mxGeometry x="350" y="640" width="60" height="30" as="geometry"/>
                </mxCell>
                <mxCell id="97oKDFuvLYN0ZNwOcKcf-5" value="Centralized&lt;br style=&quot;font-size: 10px;&quot;&gt;SmartContract&lt;br style=&quot;font-size: 10px;&quot;&gt;App" style="ellipse;whiteSpace=wrap;html=1;aspect=fixed;fontSize=10;" parent="1" vertex="1">
                    <mxGeometry x="83" y="480" width="70" height="70" as="geometry"/>
                </mxCell>
                <mxCell id="97oKDFuvLYN0ZNwOcKcf-6" value="Sovereign&lt;br&gt;Rollup&lt;br&gt;App" style="ellipse;whiteSpace=wrap;html=1;aspect=fixed;fontSize=10;" parent="1" vertex="1">
                    <mxGeometry x="263" y="480" width="70" height="70" as="geometry"/>
                </mxCell>
                <mxCell id="97oKDFuvLYN0ZNwOcKcf-7" value="Layer3" style="ellipse;whiteSpace=wrap;html=1;aspect=fixed;fontSize=10;" parent="1" vertex="1">
                    <mxGeometry x="453" y="480" width="70" height="70" as="geometry"/>
                </mxCell>
                <mxCell id="97oKDFuvLYN0ZNwOcKcf-8" value="Layer2" style="ellipse;whiteSpace=wrap;html=1;aspect=fixed;fontSize=10;" parent="1" vertex="1">
                    <mxGeometry x="623" y="480" width="70" height="70" as="geometry"/>
                </mxCell>
            </root>
        </mxGraphModel>
    </diagram>
    <diagram id="L8qMLVombMxC2f6dgw7W" name="app-specific-container">
        <mxGraphModel dx="1013" dy="684" grid="1" gridSize="10" guides="1" tooltips="1" connect="1" arrows="1" fold="1" page="1" pageScale="1" pageWidth="850" pageHeight="1100" background="#ffffff" math="0" shadow="0">
            <root>
                <mxCell id="0"/>
                <mxCell id="1" parent="0"/>
                <mxCell id="x9r5b5IjT_jU2wuUZkdD-2" value="L2 State Root" style="rounded=0;whiteSpace=wrap;html=1;" parent="1" vertex="1">
                    <mxGeometry x="140" y="60" width="104.5" height="20" as="geometry"/>
                </mxCell>
                <mxCell id="x9r5b5IjT_jU2wuUZkdD-4" value="object1" style="edgeStyle=none;rounded=0;orthogonalLoop=1;jettySize=auto;html=1;exitX=0.5;exitY=0;exitDx=0;exitDy=0;entryX=0.25;entryY=1;entryDx=0;entryDy=0;endArrow=none;endFill=0;" parent="1" source="x9r5b5IjT_jU2wuUZkdD-5" target="x9r5b5IjT_jU2wuUZkdD-2" edge="1">
                    <mxGeometry relative="1" as="geometry"/>
                </mxCell>
                <mxCell id="x9r5b5IjT_jU2wuUZkdD-5" value="ModuleTable" style="rounded=0;whiteSpace=wrap;html=1;verticalAlign=top;" parent="1" vertex="1">
                    <mxGeometry x="50" y="175" width="80" height="35" as="geometry"/>
                </mxCell>
                <mxCell id="x9r5b5IjT_jU2wuUZkdD-6" value="" style="edgeStyle=none;rounded=0;orthogonalLoop=1;jettySize=auto;html=1;exitX=0.25;exitY=1;exitDx=0;exitDy=0;entryX=0.5;entryY=0;entryDx=0;entryDy=0;endArrow=none;endFill=0;" parent="1" source="x9r5b5IjT_jU2wuUZkdD-2" target="x9r5b5IjT_jU2wuUZkdD-8" edge="1">
                    <mxGeometry relative="1" as="geometry">
                        <mxPoint x="272.03125" y="120" as="sourcePoint"/>
                        <mxPoint x="249.25" y="140" as="targetPoint"/>
                    </mxGeometry>
                </mxCell>
                <mxCell id="x9r5b5IjT_jU2wuUZkdD-16" value="object2" style="edgeLabel;html=1;align=center;verticalAlign=middle;resizable=0;points=[];fontSize=9;fontColor=#000000;" parent="x9r5b5IjT_jU2wuUZkdD-6" vertex="1" connectable="0">
                    <mxGeometry x="-0.0084" y="2" relative="1" as="geometry">
                        <mxPoint as="offset"/>
                    </mxGeometry>
                </mxCell>
                <mxCell id="8L4h3jN5H4qgKqkQCaZ6-2" style="edgeStyle=none;html=1;exitX=1;exitY=0.5;exitDx=0;exitDy=0;entryX=0;entryY=0.5;entryDx=0;entryDy=0;strokeColor=#000000;fontSize=9;fontColor=#000000;startArrow=none;startFill=0;endArrow=classic;endFill=1;" parent="1" source="x9r5b5IjT_jU2wuUZkdD-8" target="8L4h3jN5H4qgKqkQCaZ6-1" edge="1">
                    <mxGeometry relative="1" as="geometry"/>
                </mxCell>
                <mxCell id="8L4h3jN5H4qgKqkQCaZ6-3" value="Migrate to&amp;nbsp;" style="edgeLabel;html=1;align=center;verticalAlign=middle;resizable=0;points=[];fontSize=9;fontColor=#000000;" parent="8L4h3jN5H4qgKqkQCaZ6-2" vertex="1" connectable="0">
                    <mxGeometry x="-0.0276" y="2" relative="1" as="geometry">
                        <mxPoint as="offset"/>
                    </mxGeometry>
                </mxCell>
                <mxCell id="8L4h3jN5H4qgKqkQCaZ6-4" style="edgeStyle=none;html=1;exitX=0.25;exitY=1;exitDx=0;exitDy=0;strokeColor=#000000;fontSize=9;fontColor=#000000;startArrow=none;startFill=0;endArrow=classic;endFill=1;" parent="1" source="x9r5b5IjT_jU2wuUZkdD-8" edge="1">
                    <mxGeometry relative="1" as="geometry">
                        <mxPoint x="200" y="240" as="targetPoint"/>
                    </mxGeometry>
                </mxCell>
                <mxCell id="8L4h3jN5H4qgKqkQCaZ6-7" style="edgeStyle=none;html=1;exitX=0.75;exitY=1;exitDx=0;exitDy=0;strokeColor=#000000;fontSize=9;fontColor=#000000;startArrow=none;startFill=0;endArrow=classic;endFill=1;" parent="1" source="x9r5b5IjT_jU2wuUZkdD-8" target="8L4h3jN5H4qgKqkQCaZ6-6" edge="1">
                    <mxGeometry relative="1" as="geometry"/>
                </mxCell>
                <mxCell id="x9r5b5IjT_jU2wuUZkdD-8" value="GameWorld" style="rounded=0;whiteSpace=wrap;html=1;verticalAlign=top;" parent="1" vertex="1">
                    <mxGeometry x="210" y="170" width="90" height="30" as="geometry"/>
                </mxCell>
                <mxCell id="jQnJrfdG0ZucKVjnLPTE-1" value="" style="endArrow=none;dashed=1;html=1;dashPattern=1 3;strokeWidth=2;strokeColor=#000000;fontSize=9;fontColor=#000000;" parent="1" edge="1">
                    <mxGeometry width="50" height="50" relative="1" as="geometry">
                        <mxPoint x="360" y="670" as="sourcePoint"/>
                        <mxPoint x="360" y="30" as="targetPoint"/>
                    </mxGeometry>
                </mxCell>
                <mxCell id="8L4h3jN5H4qgKqkQCaZ6-1" value="App Specific Container" style="ellipse;whiteSpace=wrap;html=1;aspect=fixed;strokeColor=#000000;fontSize=9;fontColor=#000000;" parent="1" vertex="1">
                    <mxGeometry x="450" y="110" width="150" height="150" as="geometry"/>
                </mxCell>
                <mxCell id="8L4h3jN5H4qgKqkQCaZ6-5" value="GameAccounts" style="rounded=0;whiteSpace=wrap;html=1;verticalAlign=top;" parent="1" vertex="1">
                    <mxGeometry x="152.25" y="240" width="80" height="35" as="geometry"/>
                </mxCell>
                <mxCell id="8L4h3jN5H4qgKqkQCaZ6-6" value="GameObjects" style="rounded=0;whiteSpace=wrap;html=1;verticalAlign=top;" parent="1" vertex="1">
                    <mxGeometry x="260" y="240" width="80" height="35" as="geometry"/>
                </mxCell>
                <mxCell id="8L4h3jN5H4qgKqkQCaZ6-9" value="L2" style="text;html=1;strokeColor=none;fillColor=none;align=center;verticalAlign=middle;whiteSpace=wrap;rounded=0;fontSize=9;fontColor=#000000;" parent="1" vertex="1">
                    <mxGeometry x="152.25" width="60" height="30" as="geometry"/>
                </mxCell>
                <mxCell id="8L4h3jN5H4qgKqkQCaZ6-10" value="L3" style="text;html=1;strokeColor=none;fillColor=none;align=center;verticalAlign=middle;whiteSpace=wrap;rounded=0;fontSize=9;fontColor=#000000;" parent="1" vertex="1">
                    <mxGeometry x="495" width="60" height="30" as="geometry"/>
                </mxCell>
                <mxCell id="QQjnMujmf5E6Fo8A0lZx-1" value="" style="shape=flexArrow;endArrow=classic;html=1;strokeColor=#000000;fontSize=9;fontColor=#000000;endWidth=30.666666666666668;endSize=9.813333333333334;width=25.333333333333332;" parent="1" edge="1">
                    <mxGeometry width="50" height="50" relative="1" as="geometry">
                        <mxPoint x="191" y="308" as="sourcePoint"/>
                        <mxPoint x="191" y="368" as="targetPoint"/>
                    </mxGeometry>
                </mxCell>
                <mxCell id="QQjnMujmf5E6Fo8A0lZx-2" value="L2 State Root" style="rounded=0;whiteSpace=wrap;html=1;" parent="1" vertex="1">
                    <mxGeometry x="140" y="400" width="104.5" height="20" as="geometry"/>
                </mxCell>
                <mxCell id="QQjnMujmf5E6Fo8A0lZx-3" value="object1" style="edgeStyle=none;rounded=0;orthogonalLoop=1;jettySize=auto;html=1;exitX=0.5;exitY=0;exitDx=0;exitDy=0;entryX=0.25;entryY=1;entryDx=0;entryDy=0;endArrow=none;endFill=0;" parent="1" source="QQjnMujmf5E6Fo8A0lZx-4" target="QQjnMujmf5E6Fo8A0lZx-2" edge="1">
                    <mxGeometry relative="1" as="geometry"/>
                </mxCell>
                <mxCell id="QQjnMujmf5E6Fo8A0lZx-4" value="ModuleTable" style="rounded=0;whiteSpace=wrap;html=1;verticalAlign=top;" parent="1" vertex="1">
                    <mxGeometry x="50" y="515" width="80" height="35" as="geometry"/>
                </mxCell>
                <mxCell id="QQjnMujmf5E6Fo8A0lZx-5" value="" style="edgeStyle=none;rounded=0;orthogonalLoop=1;jettySize=auto;html=1;exitX=0.25;exitY=1;exitDx=0;exitDy=0;entryX=0.5;entryY=0;entryDx=0;entryDy=0;endArrow=none;endFill=0;" parent="1" source="QQjnMujmf5E6Fo8A0lZx-2" target="QQjnMujmf5E6Fo8A0lZx-9" edge="1">
                    <mxGeometry relative="1" as="geometry">
                        <mxPoint x="272.03125" y="460" as="sourcePoint"/>
                        <mxPoint x="249.25" y="480" as="targetPoint"/>
                    </mxGeometry>
                </mxCell>
                <mxCell id="QQjnMujmf5E6Fo8A0lZx-6" value="object2" style="edgeLabel;html=1;align=center;verticalAlign=middle;resizable=0;points=[];fontSize=9;fontColor=#000000;" parent="QQjnMujmf5E6Fo8A0lZx-5" vertex="1" connectable="0">
                    <mxGeometry x="-0.0084" y="2" relative="1" as="geometry">
                        <mxPoint as="offset"/>
                    </mxGeometry>
                </mxCell>
                <mxCell id="QQjnMujmf5E6Fo8A0lZx-9" value="GameWorld&lt;br&gt;(StateRoot)" style="rounded=0;whiteSpace=wrap;html=1;verticalAlign=top;" parent="1" vertex="1">
                    <mxGeometry x="210" y="510" width="90" height="40" as="geometry"/>
                </mxCell>
                <mxCell id="QQjnMujmf5E6Fo8A0lZx-20" style="edgeStyle=none;html=1;exitX=0;exitY=1;exitDx=0;exitDy=0;entryX=0.75;entryY=1;entryDx=0;entryDy=0;strokeColor=#000000;fontSize=9;fontColor=#000000;startArrow=classic;startFill=1;endArrow=none;endFill=0;" parent="1" source="QQjnMujmf5E6Fo8A0lZx-11" target="QQjnMujmf5E6Fo8A0lZx-4" edge="1">
                    <mxGeometry relative="1" as="geometry">
                        <Array as="points">
                            <mxPoint x="450" y="590"/>
                            <mxPoint x="110" y="590"/>
                        </Array>
                    </mxGeometry>
                </mxCell>
                <mxCell id="QQjnMujmf5E6Fo8A0lZx-21" value="Load&amp;nbsp; bytecode" style="edgeLabel;html=1;align=center;verticalAlign=middle;resizable=0;points=[];fontSize=9;fontColor=#000000;" parent="QQjnMujmf5E6Fo8A0lZx-20" vertex="1" connectable="0">
                    <mxGeometry x="0.0626" y="1" relative="1" as="geometry">
                        <mxPoint x="-1" as="offset"/>
                    </mxGeometry>
                </mxCell>
                <mxCell id="QQjnMujmf5E6Fo8A0lZx-26" style="edgeStyle=none;html=1;exitX=0.5;exitY=1;exitDx=0;exitDy=0;entryX=0.5;entryY=0;entryDx=0;entryDy=0;strokeColor=#000000;fontSize=19;fontColor=#000000;startArrow=none;startFill=0;endArrow=classic;endFill=1;" parent="1" source="QQjnMujmf5E6Fo8A0lZx-11" target="QQjnMujmf5E6Fo8A0lZx-25" edge="1">
                    <mxGeometry relative="1" as="geometry"/>
                </mxCell>
                <mxCell id="QQjnMujmf5E6Fo8A0lZx-27" value="Submit Tx" style="edgeLabel;html=1;align=center;verticalAlign=middle;resizable=0;points=[];fontSize=11;fontColor=#000000;" parent="QQjnMujmf5E6Fo8A0lZx-26" vertex="1" connectable="0">
                    <mxGeometry x="-0.0739" y="1" relative="1" as="geometry">
                        <mxPoint y="-1" as="offset"/>
                    </mxGeometry>
                </mxCell>
                <mxCell id="QQjnMujmf5E6Fo8A0lZx-11" value="App Specific Container" style="ellipse;whiteSpace=wrap;html=1;aspect=fixed;strokeColor=#000000;fontSize=9;fontColor=#000000;verticalAlign=top;" parent="1" vertex="1">
                    <mxGeometry x="430" y="380" width="210" height="210" as="geometry"/>
                </mxCell>
                <mxCell id="QQjnMujmf5E6Fo8A0lZx-12" style="edgeStyle=none;html=1;exitX=0.25;exitY=1;exitDx=0;exitDy=0;strokeColor=#000000;fontSize=9;fontColor=#000000;startArrow=none;startFill=0;endArrow=classic;endFill=1;" parent="1" source="QQjnMujmf5E6Fo8A0lZx-14" edge="1">
                    <mxGeometry relative="1" as="geometry">
                        <mxPoint x="478.88" y="500" as="targetPoint"/>
                    </mxGeometry>
                </mxCell>
                <mxCell id="QQjnMujmf5E6Fo8A0lZx-13" style="edgeStyle=none;html=1;exitX=0.75;exitY=1;exitDx=0;exitDy=0;strokeColor=#000000;fontSize=9;fontColor=#000000;startArrow=none;startFill=0;endArrow=classic;endFill=1;" parent="1" source="QQjnMujmf5E6Fo8A0lZx-14" target="QQjnMujmf5E6Fo8A0lZx-16" edge="1">
                    <mxGeometry relative="1" as="geometry"/>
                </mxCell>
                <mxCell id="QQjnMujmf5E6Fo8A0lZx-19" style="edgeStyle=none;html=1;exitX=0;exitY=0.5;exitDx=0;exitDy=0;entryX=1;entryY=0.75;entryDx=0;entryDy=0;strokeColor=#000000;fontSize=9;fontColor=#000000;startArrow=none;startFill=0;endArrow=classic;endFill=1;" parent="1" source="QQjnMujmf5E6Fo8A0lZx-14" target="QQjnMujmf5E6Fo8A0lZx-9" edge="1">
                    <mxGeometry relative="1" as="geometry"/>
                </mxCell>
                <mxCell id="QQjnMujmf5E6Fo8A0lZx-14" value="GameWorld" style="rounded=0;whiteSpace=wrap;html=1;verticalAlign=top;" parent="1" vertex="1">
                    <mxGeometry x="488.88" y="430" width="90" height="30" as="geometry"/>
                </mxCell>
                <mxCell id="QQjnMujmf5E6Fo8A0lZx-15" value="GameAccounts" style="rounded=0;whiteSpace=wrap;html=1;verticalAlign=top;" parent="1" vertex="1">
                    <mxGeometry x="446.13" y="500" width="80" height="35" as="geometry"/>
                </mxCell>
                <mxCell id="QQjnMujmf5E6Fo8A0lZx-16" value="GameObjects" style="rounded=0;whiteSpace=wrap;html=1;verticalAlign=top;" parent="1" vertex="1">
                    <mxGeometry x="538.88" y="500" width="80" height="35" as="geometry"/>
                </mxCell>
                <mxCell id="QQjnMujmf5E6Fo8A0lZx-23" style="edgeStyle=none;html=1;exitX=0;exitY=0.5;exitDx=0;exitDy=0;strokeColor=#000000;fontSize=9;fontColor=#000000;startArrow=none;startFill=0;endArrow=classic;endFill=1;" parent="1" source="QQjnMujmf5E6Fo8A0lZx-22" target="QQjnMujmf5E6Fo8A0lZx-11" edge="1">
                    <mxGeometry relative="1" as="geometry"/>
                </mxCell>
                <mxCell id="QQjnMujmf5E6Fo8A0lZx-24" value="Send Tx" style="edgeLabel;html=1;align=center;verticalAlign=middle;resizable=0;points=[];fontSize=9;fontColor=#000000;" parent="QQjnMujmf5E6Fo8A0lZx-23" vertex="1" connectable="0">
                    <mxGeometry x="-0.1793" relative="1" as="geometry">
                        <mxPoint as="offset"/>
                    </mxGeometry>
                </mxCell>
                <mxCell id="QQjnMujmf5E6Fo8A0lZx-22" value="Client" style="ellipse;whiteSpace=wrap;html=1;aspect=fixed;strokeColor=#000000;fontSize=9;fontColor=#000000;" parent="1" vertex="1">
                    <mxGeometry x="720" y="420" width="60" height="60" as="geometry"/>
                </mxCell>
                <mxCell id="QQjnMujmf5E6Fo8A0lZx-25" value="DA" style="rounded=0;whiteSpace=wrap;html=1;strokeColor=#000000;fontSize=19;fontColor=#000000;dashed=1;" parent="1" vertex="1">
                    <mxGeometry x="480" y="640" width="110" height="50" as="geometry"/>
                </mxCell>
            </root>
        </mxGraphModel>
    </diagram>
    <diagram id="BWTeV7E0BfhSjZJTvVgE" name="bitcoin-side-rollup">
        <mxGraphModel dx="1113" dy="731" grid="1" gridSize="10" guides="1" tooltips="1" connect="1" arrows="1" fold="1" page="1" pageScale="1" pageWidth="850" pageHeight="1100" background="#ffffff" math="0" shadow="0">
            <root>
                <mxCell id="0"/>
                <mxCell id="1" parent="0"/>
                <mxCell id="oG1TK4xMY93k_6H9MXYU-42" style="edgeStyle=none;html=1;exitX=0;exitY=0.5;exitDx=0;exitDy=0;" parent="1" source="oG1TK4xMY93k_6H9MXYU-1" target="oG1TK4xMY93k_6H9MXYU-41" edge="1">
                    <mxGeometry relative="1" as="geometry"/>
                </mxCell>
                <mxCell id="oG1TK4xMY93k_6H9MXYU-43" value="Publish tx to DA" style="edgeLabel;html=1;align=center;verticalAlign=middle;resizable=0;points=[];" parent="oG1TK4xMY93k_6H9MXYU-42" vertex="1" connectable="0">
                    <mxGeometry x="-0.022" y="-2" relative="1" as="geometry">
                        <mxPoint as="offset"/>
                    </mxGeometry>
                </mxCell>
                <mxCell id="oG1TK4xMY93k_6H9MXYU-1" value="&lt;b&gt;Rooch Sequencer&lt;/b&gt;" style="rounded=0;whiteSpace=wrap;html=1;fontSize=9;verticalAlign=top;" parent="1" vertex="1">
                    <mxGeometry x="190" y="330" width="400" height="220" as="geometry"/>
                </mxCell>
                <mxCell id="oG1TK4xMY93k_6H9MXYU-2" value="Get Transaction Proof" style="edgeStyle=none;html=1;exitX=1;exitY=0.5;exitDx=0;exitDy=0;entryX=0;entryY=0;entryDx=0;entryDy=0;fontSize=9;" parent="1" source="oG1TK4xMY93k_6H9MXYU-3" target="oG1TK4xMY93k_6H9MXYU-31" edge="1">
                    <mxGeometry relative="1" as="geometry"/>
                </mxCell>
                <mxCell id="oG1TK4xMY93k_6H9MXYU-3" value="&lt;b&gt;Bitcoin&lt;/b&gt;" style="rounded=0;whiteSpace=wrap;html=1;dashed=1;verticalAlign=top;" parent="1" vertex="1">
                    <mxGeometry x="40" y="120" width="557" height="100" as="geometry"/>
                </mxCell>
                <mxCell id="oG1TK4xMY93k_6H9MXYU-4" value="" style="group;verticalAlign=middle;fillColor=default;" parent="1" connectable="0" vertex="1">
                    <mxGeometry x="50" y="160" width="100" height="41" as="geometry"/>
                </mxCell>
                <mxCell id="oG1TK4xMY93k_6H9MXYU-5" value="Block(N)" style="rounded=0;whiteSpace=wrap;html=1;verticalAlign=middle;align=center;" parent="oG1TK4xMY93k_6H9MXYU-4" vertex="1">
                    <mxGeometry width="100" height="41" as="geometry"/>
                </mxCell>
                <mxCell id="oG1TK4xMY93k_6H9MXYU-6" style="edgeStyle=none;html=1;exitX=1;exitY=0.5;exitDx=0;exitDy=0;fontSize=9;" parent="1" edge="1">
                    <mxGeometry relative="1" as="geometry">
                        <mxPoint x="350" y="413.47058823529414" as="targetPoint"/>
                    </mxGeometry>
                </mxCell>
                <mxCell id="oG1TK4xMY93k_6H9MXYU-35" style="edgeStyle=none;html=1;exitX=1;exitY=1;exitDx=0;exitDy=0;entryX=0;entryY=0.5;entryDx=0;entryDy=0;" parent="1" source="oG1TK4xMY93k_6H9MXYU-9" target="oG1TK4xMY93k_6H9MXYU-36" edge="1">
                    <mxGeometry relative="1" as="geometry">
                        <mxPoint x="260" y="600" as="targetPoint"/>
                    </mxGeometry>
                </mxCell>
                <mxCell id="oG1TK4xMY93k_6H9MXYU-9" value="Bitcoin Light Client" style="ellipse;whiteSpace=wrap;html=1;aspect=fixed;fontSize=10;" parent="1" vertex="1">
                    <mxGeometry x="210" y="340" width="50" height="50" as="geometry"/>
                </mxCell>
                <mxCell id="oG1TK4xMY93k_6H9MXYU-11" style="edgeStyle=none;html=1;exitX=1;exitY=0.75;exitDx=0;exitDy=0;entryX=0;entryY=0.5;entryDx=0;entryDy=0;fontSize=9;" parent="1" source="oG1TK4xMY93k_6H9MXYU-12" target="oG1TK4xMY93k_6H9MXYU-9" edge="1">
                    <mxGeometry relative="1" as="geometry"/>
                </mxCell>
                <mxCell id="oG1TK4xMY93k_6H9MXYU-12" value="Relayer" style="rounded=1;whiteSpace=wrap;html=1;fillColor=none;" parent="1" vertex="1">
                    <mxGeometry x="120" y="250" width="77.5" height="30" as="geometry"/>
                </mxCell>
                <mxCell id="oG1TK4xMY93k_6H9MXYU-13" value="" style="group;verticalAlign=middle;fillColor=default;" parent="1" connectable="0" vertex="1">
                    <mxGeometry x="165" y="160" width="100" height="41" as="geometry"/>
                </mxCell>
                <mxCell id="oG1TK4xMY93k_6H9MXYU-14" value="Block(N+1)" style="rounded=0;whiteSpace=wrap;html=1;verticalAlign=middle;align=center;" parent="oG1TK4xMY93k_6H9MXYU-13" vertex="1">
                    <mxGeometry width="100" height="41" as="geometry"/>
                </mxCell>
                <mxCell id="oG1TK4xMY93k_6H9MXYU-24" style="edgeStyle=none;html=1;exitX=0.25;exitY=1;exitDx=0;exitDy=0;entryX=0.908;entryY=-0.037;entryDx=0;entryDy=0;entryPerimeter=0;fontSize=9;" parent="1" source="oG1TK4xMY93k_6H9MXYU-14" target="oG1TK4xMY93k_6H9MXYU-12" edge="1">
                    <mxGeometry relative="1" as="geometry"/>
                </mxCell>
                <mxCell id="oG1TK4xMY93k_6H9MXYU-26" style="edgeStyle=none;html=1;exitX=0;exitY=0.5;exitDx=0;exitDy=0;entryX=1;entryY=0.5;entryDx=0;entryDy=0;fontSize=9;" parent="1" source="oG1TK4xMY93k_6H9MXYU-28" target="oG1TK4xMY93k_6H9MXYU-23" edge="1">
                    <mxGeometry relative="1" as="geometry">
                        <mxPoint x="450" y="412" as="targetPoint"/>
                    </mxGeometry>
                </mxCell>
                <mxCell id="oG1TK4xMY93k_6H9MXYU-27" value="Verify Transaction Proof" style="edgeLabel;html=1;align=center;verticalAlign=middle;resizable=0;points=[];fontSize=9;" parent="oG1TK4xMY93k_6H9MXYU-26" vertex="1" connectable="0">
                    <mxGeometry x="-0.0887" y="1" relative="1" as="geometry">
                        <mxPoint x="1" as="offset"/>
                    </mxGeometry>
                </mxCell>
                <mxCell id="oG1TK4xMY93k_6H9MXYU-28" value="App&lt;br&gt;Contract" style="ellipse;whiteSpace=wrap;html=1;aspect=fixed;fontSize=10;" parent="1" vertex="1">
                    <mxGeometry x="480" y="360" width="60" height="60" as="geometry"/>
                </mxCell>
                <mxCell id="oG1TK4xMY93k_6H9MXYU-29" style="edgeStyle=none;html=1;exitX=0;exitY=0.5;exitDx=0;exitDy=0;entryX=1;entryY=0.5;entryDx=0;entryDy=0;fontSize=9;" parent="1" source="oG1TK4xMY93k_6H9MXYU-31" target="oG1TK4xMY93k_6H9MXYU-28" edge="1">
                    <mxGeometry relative="1" as="geometry"/>
                </mxCell>
                <mxCell id="oG1TK4xMY93k_6H9MXYU-30" value="Call funx(transaction_proof)" style="edgeLabel;html=1;align=center;verticalAlign=middle;resizable=0;points=[];fontSize=9;" parent="oG1TK4xMY93k_6H9MXYU-29" vertex="1" connectable="0">
                    <mxGeometry x="-0.0064" y="-2" relative="1" as="geometry">
                        <mxPoint x="1" as="offset"/>
                    </mxGeometry>
                </mxCell>
                <mxCell id="oG1TK4xMY93k_6H9MXYU-31" value="Client" style="ellipse;whiteSpace=wrap;html=1;aspect=fixed;fontSize=10;" parent="1" vertex="1">
                    <mxGeometry x="718" y="340" width="60" height="60" as="geometry"/>
                </mxCell>
                <mxCell id="oG1TK4xMY93k_6H9MXYU-36" value="" style="rounded=0;whiteSpace=wrap;html=1;dashed=1;fillColor=none;" parent="1" vertex="1">
                    <mxGeometry x="280" y="360" width="120" height="170" as="geometry"/>
                </mxCell>
                <mxCell id="oG1TK4xMY93k_6H9MXYU-23" value="BlockHeader(N+1)&lt;br&gt;&lt;br&gt;BlockNumber&lt;br&gt;TransactionRoot" style="rounded=0;whiteSpace=wrap;html=1;verticalAlign=middle;align=center;" parent="1" vertex="1">
                    <mxGeometry x="290" y="450" width="100" height="60" as="geometry"/>
                </mxCell>
                <mxCell id="oG1TK4xMY93k_6H9MXYU-39" style="edgeStyle=none;html=1;exitX=0.5;exitY=1;exitDx=0;exitDy=0;entryX=0.5;entryY=0;entryDx=0;entryDy=0;" parent="1" source="oG1TK4xMY93k_6H9MXYU-37" target="oG1TK4xMY93k_6H9MXYU-23" edge="1">
                    <mxGeometry relative="1" as="geometry"/>
                </mxCell>
                <mxCell id="oG1TK4xMY93k_6H9MXYU-37" value="BlockHeader(N)" style="rounded=0;whiteSpace=wrap;html=1;verticalAlign=middle;align=center;" parent="1" vertex="1">
                    <mxGeometry x="290" y="380" width="100" height="40" as="geometry"/>
                </mxCell>
                <mxCell id="oG1TK4xMY93k_6H9MXYU-38" style="edgeStyle=none;html=1;exitX=1;exitY=0.5;exitDx=0;exitDy=0;entryX=0;entryY=0.5;entryDx=0;entryDy=0;" parent="1" source="oG1TK4xMY93k_6H9MXYU-5" target="oG1TK4xMY93k_6H9MXYU-14" edge="1">
                    <mxGeometry relative="1" as="geometry"/>
                </mxCell>
                <mxCell id="oG1TK4xMY93k_6H9MXYU-40" value="&lt;b&gt;&lt;font style=&quot;font-size: 14px;&quot;&gt;Rooch as Bitcoin Side Rollup&lt;/font&gt;&lt;/b&gt;" style="text;html=1;strokeColor=none;fillColor=none;align=center;verticalAlign=middle;whiteSpace=wrap;rounded=0;dashed=1;" parent="1" vertex="1">
                    <mxGeometry x="40" y="40" width="560" height="30" as="geometry"/>
                </mxCell>
                <mxCell id="oG1TK4xMY93k_6H9MXYU-45" style="edgeStyle=none;html=1;exitX=1;exitY=0.75;exitDx=0;exitDy=0;entryX=0;entryY=0.5;entryDx=0;entryDy=0;" parent="1" source="oG1TK4xMY93k_6H9MXYU-41" target="oG1TK4xMY93k_6H9MXYU-44" edge="1">
                    <mxGeometry relative="1" as="geometry"/>
                </mxCell>
                <mxCell id="oG1TK4xMY93k_6H9MXYU-46" value="Sync tx from&amp;nbsp; DA" style="edgeLabel;html=1;align=center;verticalAlign=middle;resizable=0;points=[];" parent="oG1TK4xMY93k_6H9MXYU-45" vertex="1" connectable="0">
                    <mxGeometry x="-0.1234" relative="1" as="geometry">
                        <mxPoint as="offset"/>
                    </mxGeometry>
                </mxCell>
                <mxCell id="oG1TK4xMY93k_6H9MXYU-41" value="DA&lt;br&gt;()" style="rounded=0;whiteSpace=wrap;html=1;fillColor=default;fillStyle=solid;" parent="1" vertex="1">
                    <mxGeometry x="40" y="360" width="50" height="230" as="geometry"/>
                </mxCell>
                <mxCell id="oG1TK4xMY93k_6H9MXYU-44" value="&lt;b&gt;Rooch Full node&lt;/b&gt;" style="rounded=0;whiteSpace=wrap;html=1;fontSize=9;verticalAlign=middle;" parent="1" vertex="1">
                    <mxGeometry x="190" y="640" width="170" height="90" as="geometry"/>
                </mxCell>
            </root>
        </mxGraphModel>
    </diagram>
    <diagram name="Bitcoin-Execution-Layer" id="AEpTsGXn6ie645tbCBL7">
        <mxGraphModel dx="1963" dy="731" grid="1" gridSize="10" guides="1" tooltips="1" connect="1" arrows="1" fold="1" page="1" pageScale="1" pageWidth="850" pageHeight="1100" background="#ffffff" math="0" shadow="0">
            <root>
                <mxCell id="bKkMmIuWIrx2wGZMgKDW-0"/>
                <mxCell id="bKkMmIuWIrx2wGZMgKDW-1" parent="bKkMmIuWIrx2wGZMgKDW-0"/>
                <mxCell id="bKkMmIuWIrx2wGZMgKDW-4" value="&lt;b&gt;Rooch&lt;/b&gt;" style="rounded=0;whiteSpace=wrap;html=1;fontSize=9;verticalAlign=top;" vertex="1" parent="bKkMmIuWIrx2wGZMgKDW-1">
                    <mxGeometry x="260" y="243" width="400" height="266" as="geometry"/>
                </mxCell>
                <mxCell id="s2TvBBviVgELpqNL48A3-17" style="edgeStyle=none;html=1;exitX=0.25;exitY=1;exitDx=0;exitDy=0;entryX=0.5;entryY=0;entryDx=0;entryDy=0;startArrow=classic;startFill=1;" edge="1" parent="bKkMmIuWIrx2wGZMgKDW-1" source="bKkMmIuWIrx2wGZMgKDW-6" target="bKkMmIuWIrx2wGZMgKDW-32">
                    <mxGeometry relative="1" as="geometry"/>
                </mxCell>
                <mxCell id="bKkMmIuWIrx2wGZMgKDW-6" value="&lt;b&gt;Bitcoin Network&lt;/b&gt;" style="rounded=0;whiteSpace=wrap;html=1;dashed=1;verticalAlign=top;" vertex="1" parent="bKkMmIuWIrx2wGZMgKDW-1">
                    <mxGeometry x="80" y="63" width="480" height="140" as="geometry"/>
                </mxCell>
                <mxCell id="bKkMmIuWIrx2wGZMgKDW-9" style="edgeStyle=none;html=1;exitX=1;exitY=0.5;exitDx=0;exitDy=0;fontSize=9;" edge="1" parent="bKkMmIuWIrx2wGZMgKDW-1">
                    <mxGeometry relative="1" as="geometry">
                        <mxPoint x="350" y="413.47058823529414" as="targetPoint"/>
                    </mxGeometry>
                </mxCell>
                <mxCell id="bKkMmIuWIrx2wGZMgKDW-10" style="edgeStyle=none;html=1;exitX=1;exitY=1;exitDx=0;exitDy=0;entryX=0;entryY=0.5;entryDx=0;entryDy=0;" edge="1" parent="bKkMmIuWIrx2wGZMgKDW-1" source="bKkMmIuWIrx2wGZMgKDW-11" target="bKkMmIuWIrx2wGZMgKDW-23">
                    <mxGeometry relative="1" as="geometry">
                        <mxPoint x="435" y="549" as="targetPoint"/>
                    </mxGeometry>
                </mxCell>
                <mxCell id="bKkMmIuWIrx2wGZMgKDW-11" value="Bitcoin Move&lt;br&gt;Full node" style="ellipse;whiteSpace=wrap;html=1;aspect=fixed;fontSize=10;" vertex="1" parent="bKkMmIuWIrx2wGZMgKDW-1">
                    <mxGeometry x="301" y="277" width="50" height="50" as="geometry"/>
                </mxCell>
                <mxCell id="s2TvBBviVgELpqNL48A3-19" style="edgeStyle=none;html=1;exitX=0;exitY=1;exitDx=0;exitDy=0;startArrow=classic;startFill=1;" edge="1" parent="bKkMmIuWIrx2wGZMgKDW-1" source="bKkMmIuWIrx2wGZMgKDW-22" target="s2TvBBviVgELpqNL48A3-12">
                    <mxGeometry relative="1" as="geometry"/>
                </mxCell>
                <mxCell id="s2TvBBviVgELpqNL48A3-20" style="edgeStyle=none;html=1;exitX=0;exitY=0.5;exitDx=0;exitDy=0;entryX=1;entryY=0.75;entryDx=0;entryDy=0;startArrow=none;startFill=0;endArrow=classic;endFill=1;" edge="1" parent="bKkMmIuWIrx2wGZMgKDW-1" source="bKkMmIuWIrx2wGZMgKDW-22" target="bKkMmIuWIrx2wGZMgKDW-6">
                    <mxGeometry relative="1" as="geometry"/>
                </mxCell>
                <mxCell id="s2TvBBviVgELpqNL48A3-21" value="Send bitcoin tx" style="edgeLabel;html=1;align=center;verticalAlign=middle;resizable=0;points=[];" vertex="1" connectable="0" parent="s2TvBBviVgELpqNL48A3-20">
                    <mxGeometry x="-0.0197" y="-1" relative="1" as="geometry">
                        <mxPoint as="offset"/>
                    </mxGeometry>
                </mxCell>
                <mxCell id="bKkMmIuWIrx2wGZMgKDW-22" value="Client" style="ellipse;whiteSpace=wrap;html=1;aspect=fixed;fontSize=10;" vertex="1" parent="bKkMmIuWIrx2wGZMgKDW-1">
                    <mxGeometry x="760" y="260" width="60" height="60" as="geometry"/>
                </mxCell>
                <mxCell id="bKkMmIuWIrx2wGZMgKDW-28" value="&lt;b&gt;&lt;font style=&quot;font-size: 14px;&quot;&gt;Rooch as Bitcoin Execution Layer&lt;/font&gt;&lt;/b&gt;" style="text;html=1;strokeColor=none;fillColor=none;align=center;verticalAlign=middle;whiteSpace=wrap;rounded=0;dashed=1;" vertex="1" parent="bKkMmIuWIrx2wGZMgKDW-1">
                    <mxGeometry x="40" y="5" width="560" height="30" as="geometry"/>
                </mxCell>
                <mxCell id="bKkMmIuWIrx2wGZMgKDW-31" value="Application DA" style="rounded=0;whiteSpace=wrap;html=1;fillColor=default;fillStyle=solid;" vertex="1" parent="bKkMmIuWIrx2wGZMgKDW-1">
                    <mxGeometry x="40" y="603" width="560" height="57" as="geometry"/>
                </mxCell>
                <mxCell id="s2TvBBviVgELpqNL48A3-18" style="edgeStyle=none;html=1;exitX=0.5;exitY=1;exitDx=0;exitDy=0;entryX=0.25;entryY=0;entryDx=0;entryDy=0;startArrow=classic;startFill=1;" edge="1" parent="bKkMmIuWIrx2wGZMgKDW-1" source="bKkMmIuWIrx2wGZMgKDW-32" target="bKkMmIuWIrx2wGZMgKDW-31">
                    <mxGeometry relative="1" as="geometry"/>
                </mxCell>
                <mxCell id="bKkMmIuWIrx2wGZMgKDW-32" value="&lt;b&gt;Rooch Other Full node&lt;/b&gt;" style="rounded=0;whiteSpace=wrap;html=1;fontSize=9;verticalAlign=middle;" vertex="1" parent="bKkMmIuWIrx2wGZMgKDW-1">
                    <mxGeometry x="-30" y="419" width="170" height="90" as="geometry"/>
                </mxCell>
                <mxCell id="s2TvBBviVgELpqNL48A3-4" style="edgeStyle=none;html=1;exitX=1;exitY=0.5;exitDx=0;exitDy=0;entryX=0;entryY=0.5;entryDx=0;entryDy=0;startArrow=classic;startFill=1;" edge="1" parent="bKkMmIuWIrx2wGZMgKDW-1" source="s2TvBBviVgELpqNL48A3-0" target="s2TvBBviVgELpqNL48A3-1">
                    <mxGeometry relative="1" as="geometry"/>
                </mxCell>
                <mxCell id="s2TvBBviVgELpqNL48A3-5" style="edgeStyle=none;html=1;exitX=1;exitY=1;exitDx=0;exitDy=0;startArrow=classic;startFill=1;" edge="1" parent="bKkMmIuWIrx2wGZMgKDW-1" source="s2TvBBviVgELpqNL48A3-0" target="s2TvBBviVgELpqNL48A3-2">
                    <mxGeometry relative="1" as="geometry"/>
                </mxCell>
                <mxCell id="s2TvBBviVgELpqNL48A3-0" value="BTC Miner&lt;br&gt;node" style="ellipse;whiteSpace=wrap;html=1;aspect=fixed;fontSize=10;" vertex="1" parent="bKkMmIuWIrx2wGZMgKDW-1">
                    <mxGeometry x="150" y="81" width="60" height="60" as="geometry"/>
                </mxCell>
                <mxCell id="s2TvBBviVgELpqNL48A3-3" style="edgeStyle=none;html=1;exitX=0;exitY=0.5;exitDx=0;exitDy=0;entryX=1;entryY=0.5;entryDx=0;entryDy=0;startArrow=classic;startFill=1;" edge="1" parent="bKkMmIuWIrx2wGZMgKDW-1" source="s2TvBBviVgELpqNL48A3-1" target="s2TvBBviVgELpqNL48A3-2">
                    <mxGeometry relative="1" as="geometry"/>
                </mxCell>
                <mxCell id="s2TvBBviVgELpqNL48A3-1" value="BTC Miner&lt;br&gt;node" style="ellipse;whiteSpace=wrap;html=1;aspect=fixed;fontSize=10;" vertex="1" parent="bKkMmIuWIrx2wGZMgKDW-1">
                    <mxGeometry x="350" y="85" width="60" height="60" as="geometry"/>
                </mxCell>
                <mxCell id="s2TvBBviVgELpqNL48A3-6" style="edgeStyle=none;html=1;exitX=0.5;exitY=1;exitDx=0;exitDy=0;startArrow=classic;startFill=1;" edge="1" parent="bKkMmIuWIrx2wGZMgKDW-1" source="s2TvBBviVgELpqNL48A3-2" target="bKkMmIuWIrx2wGZMgKDW-11">
                    <mxGeometry relative="1" as="geometry"/>
                </mxCell>
                <mxCell id="s2TvBBviVgELpqNL48A3-2" value="BTC Full node" style="ellipse;whiteSpace=wrap;html=1;aspect=fixed;fontSize=10;" vertex="1" parent="bKkMmIuWIrx2wGZMgKDW-1">
                    <mxGeometry x="240" y="135" width="60" height="60" as="geometry"/>
                </mxCell>
                <mxCell id="s2TvBBviVgELpqNL48A3-8" value="" style="group" vertex="1" connectable="0" parent="bKkMmIuWIrx2wGZMgKDW-1">
                    <mxGeometry x="386" y="269" width="120" height="124" as="geometry"/>
                </mxCell>
                <mxCell id="bKkMmIuWIrx2wGZMgKDW-23" value="Bitcoin State Zone" style="rounded=0;whiteSpace=wrap;html=1;dashed=1;fillColor=none;verticalAlign=top;" vertex="1" parent="s2TvBBviVgELpqNL48A3-8">
                    <mxGeometry width="120" height="124" as="geometry"/>
                </mxCell>
                <mxCell id="s2TvBBviVgELpqNL48A3-7" value="&lt;ul&gt;&lt;li&gt;BlockHeader&lt;/li&gt;&lt;li&gt;UTXO&lt;/li&gt;&lt;li&gt;Balance&lt;/li&gt;&lt;/ul&gt;" style="text;strokeColor=none;fillColor=none;html=1;whiteSpace=wrap;verticalAlign=middle;overflow=hidden;" vertex="1" parent="s2TvBBviVgELpqNL48A3-8">
                    <mxGeometry y="34" width="114" height="90" as="geometry"/>
                </mxCell>
                <mxCell id="s2TvBBviVgELpqNL48A3-15" style="edgeStyle=none;html=1;exitX=1;exitY=0.5;exitDx=0;exitDy=0;entryX=0;entryY=1;entryDx=0;entryDy=0;startArrow=classic;startFill=1;" edge="1" parent="bKkMmIuWIrx2wGZMgKDW-1" source="s2TvBBviVgELpqNL48A3-10" target="s2TvBBviVgELpqNL48A3-12">
                    <mxGeometry relative="1" as="geometry"/>
                </mxCell>
                <mxCell id="s2TvBBviVgELpqNL48A3-16" value="read &amp;amp; write" style="edgeLabel;html=1;align=center;verticalAlign=middle;resizable=0;points=[];" vertex="1" connectable="0" parent="s2TvBBviVgELpqNL48A3-15">
                    <mxGeometry x="0.0447" relative="1" as="geometry">
                        <mxPoint as="offset"/>
                    </mxGeometry>
                </mxCell>
                <mxCell id="s2TvBBviVgELpqNL48A3-10" value="App State Zone" style="rounded=0;whiteSpace=wrap;html=1;dashed=1;fillColor=none;verticalAlign=top;" vertex="1" parent="bKkMmIuWIrx2wGZMgKDW-1">
                    <mxGeometry x="390" y="410" width="120" height="80" as="geometry"/>
                </mxCell>
                <mxCell id="s2TvBBviVgELpqNL48A3-12" value="App&lt;br&gt;Smart Contract" style="ellipse;whiteSpace=wrap;html=1;aspect=fixed;fontSize=10;" vertex="1" parent="bKkMmIuWIrx2wGZMgKDW-1">
                    <mxGeometry x="561" y="360" width="70" height="70" as="geometry"/>
                </mxCell>
                <mxCell id="s2TvBBviVgELpqNL48A3-13" style="edgeStyle=none;html=1;exitX=1;exitY=0.5;exitDx=0;exitDy=0;entryX=0;entryY=0.5;entryDx=0;entryDy=0;startArrow=none;startFill=0;" edge="1" parent="bKkMmIuWIrx2wGZMgKDW-1" source="s2TvBBviVgELpqNL48A3-7" target="s2TvBBviVgELpqNL48A3-12">
                    <mxGeometry relative="1" as="geometry"/>
                </mxCell>
                <mxCell id="s2TvBBviVgELpqNL48A3-14" value="read" style="edgeLabel;html=1;align=center;verticalAlign=middle;resizable=0;points=[];" vertex="1" connectable="0" parent="s2TvBBviVgELpqNL48A3-13">
                    <mxGeometry x="0.0542" y="2" relative="1" as="geometry">
                        <mxPoint y="1" as="offset"/>
                    </mxGeometry>
                </mxCell>
                <mxCell id="bKkMmIuWIrx2wGZMgKDW-2" style="edgeStyle=none;html=1;exitX=0;exitY=0.875;exitDx=0;exitDy=0;exitPerimeter=0;entryX=0.385;entryY=0.008;entryDx=0;entryDy=0;entryPerimeter=0;" edge="1" parent="bKkMmIuWIrx2wGZMgKDW-1" source="s2TvBBviVgELpqNL48A3-10" target="bKkMmIuWIrx2wGZMgKDW-31">
                    <mxGeometry relative="1" as="geometry">
                        <mxPoint x="230" y="593" as="targetPoint"/>
                    </mxGeometry>
                </mxCell>
                <mxCell id="bKkMmIuWIrx2wGZMgKDW-3" value="Publish tx to DA" style="edgeLabel;html=1;align=center;verticalAlign=middle;resizable=0;points=[];" vertex="1" connectable="0" parent="bKkMmIuWIrx2wGZMgKDW-2">
                    <mxGeometry x="-0.022" y="-2" relative="1" as="geometry">
                        <mxPoint as="offset"/>
                    </mxGeometry>
                </mxCell>
                <mxCell id="s2TvBBviVgELpqNL48A3-22" value="" style="line;strokeWidth=1;html=1;dashed=1;" vertex="1" parent="bKkMmIuWIrx2wGZMgKDW-1">
                    <mxGeometry x="-80" y="215" width="910" height="10" as="geometry"/>
                </mxCell>
                <mxCell id="s2TvBBviVgELpqNL48A3-23" value="RPC&lt;br&gt;" style="rounded=0;whiteSpace=wrap;html=1;strokeWidth=1;verticalAlign=top;" vertex="1" parent="bKkMmIuWIrx2wGZMgKDW-1">
                    <mxGeometry x="560" y="260" width="80" height="90" as="geometry"/>
                </mxCell>
                <mxCell id="s2TvBBviVgELpqNL48A3-24" value="&lt;ul style=&quot;font-size: 9px;&quot;&gt;&lt;li style=&quot;font-size: 9px;&quot;&gt;Bitcoin&lt;/li&gt;&lt;li style=&quot;font-size: 9px;&quot;&gt;BRC20/ARC20&lt;/li&gt;&lt;li style=&quot;font-size: 9px;&quot;&gt;State&lt;/li&gt;&lt;li style=&quot;font-size: 9px;&quot;&gt;Contract call&lt;/li&gt;&lt;/ul&gt;" style="text;strokeColor=none;fillColor=none;html=1;whiteSpace=wrap;verticalAlign=middle;overflow=hidden;strokeWidth=1;fontSize=9;" vertex="1" parent="bKkMmIuWIrx2wGZMgKDW-1">
                    <mxGeometry x="535" y="270" width="105" height="80" as="geometry"/>
                </mxCell>
                <mxCell id="s2TvBBviVgELpqNL48A3-29" value="Layer 1" style="text;html=1;align=center;verticalAlign=middle;resizable=0;points=[];autosize=1;strokeColor=none;fillColor=none;fontSize=17;" vertex="1" parent="bKkMmIuWIrx2wGZMgKDW-1">
                    <mxGeometry x="731" y="135" width="80" height="30" as="geometry"/>
                </mxCell>
                <mxCell id="s2TvBBviVgELpqNL48A3-30" value="Execution Layer" style="text;html=1;align=center;verticalAlign=middle;resizable=0;points=[];autosize=1;strokeColor=none;fillColor=none;fontSize=17;" vertex="1" parent="bKkMmIuWIrx2wGZMgKDW-1">
                    <mxGeometry x="695" y="389" width="150" height="30" as="geometry"/>
                </mxCell>
                <mxCell id="s2TvBBviVgELpqNL48A3-31" value="" style="line;strokeWidth=1;html=1;dashed=1;" vertex="1" parent="bKkMmIuWIrx2wGZMgKDW-1">
                    <mxGeometry x="-80" y="570" width="910" height="10" as="geometry"/>
                </mxCell>
            </root>
        </mxGraphModel>
    </diagram>
</mxfile>